<?xml version="1.0" encoding="utf-8"?>
<!-- Generator: Adobe Illustrator 16.0.0, SVG Export Plug-In . SVG Version: 6.00 Build 0)  -->
<!DOCTYPE svg PUBLIC "-//W3C//DTD SVG 1.1//EN" "http://www.w3.org/Graphics/SVG/1.1/DTD/svg11.dtd">
<svg version="1.1" id="Layer_1" xmlns="http://www.w3.org/2000/svg" xmlns:xlink="http://www.w3.org/1999/xlink" x="0px" y="0px"
	 width="34.52px" height="34.521px" viewBox="0 0 34.52 34.521" enable-background="new 0 0 34.52 34.521" xml:space="preserve">
<g>
	<polygon display="none" fill-rule="evenodd" clip-rule="evenodd" fill="#24C9AD" points="-129.836,-49.132 241.164,-49.132 
		241.164,321.868 -129.836,321.868 -129.836,-49.132 	"/>
	<polygon fill-rule="evenodd" clip-rule="evenodd" fill="#FFFFFF" points="-66.421,80.56 -59.627,80.56 -59.627,94.148 
		-46.04,94.148 -46.04,100.942 -59.627,100.942 -59.627,114.53 -66.421,114.53 -66.421,100.942 -80.01,100.942 -80.01,94.148 
		-66.421,94.148 -66.421,80.56 	"/>
	<path fill-rule="evenodd" clip-rule="evenodd" fill="#FFFFFF" d="M-70.264,183.604h20.827v6.794h-20.827v6.35L-80.01,187
		l9.746-9.746V183.604L-70.264,183.604z M-55.786,158.91l9.746,9.746l-9.746,9.746v-6.349h-20.827v-6.794h20.827V158.91
		L-55.786,158.91z"/>
	<path fill-rule="evenodd" clip-rule="evenodd" fill="#FFFFFF" d="M32.02,82.6l-0.006,11.75l-11.751-0.005l3.962-3.959
		c-1.691-1.502-3.918-2.416-6.359-2.416c-2.645,0-5.039,1.073-6.771,2.804c-1.732,1.732-2.804,4.126-2.804,6.771
		c0,2.644,1.072,5.039,2.804,6.771l-0.005,0.005c1.731,1.728,4.127,2.798,6.776,2.798c2.508,0,4.79-0.959,6.495-2.529l4.087,4.087
		c-2.757,2.623-6.483,4.234-10.582,4.234c-4.236,0-8.075-1.721-10.855-4.501H7c-2.78-2.78-4.501-6.623-4.501-10.865
		C2.5,93.303,4.22,89.46,7,86.68s6.624-4.501,10.866-4.501c4.04,0,7.719,1.56,10.461,4.11L32.02,82.6L32.02,82.6z"/>
	<path fill-rule="evenodd" clip-rule="evenodd" fill="#FFFFFF" d="M82.783,82.6l0.006,11.75l11.752-0.005l-3.963-3.959
		c1.689-1.502,3.918-2.416,6.357-2.416c2.645,0,5.039,1.073,6.771,2.804c1.732,1.732,2.805,4.126,2.805,6.771
		c0,2.644-1.072,5.039-2.805,6.771l0.006,0.005c-1.732,1.728-4.129,2.798-6.777,2.798c-2.508,0-4.789-0.959-6.494-2.529
		l-4.088,4.087c2.758,2.623,6.484,4.234,10.582,4.234c4.236,0,8.076-1.721,10.855-4.501h0.012c2.779-2.78,4.502-6.623,4.502-10.865
		c0-4.243-1.723-8.086-4.502-10.866c-2.781-2.78-6.623-4.501-10.867-4.501c-4.039,0-7.719,1.56-10.461,4.11L82.783,82.6L82.783,82.6
		z"/>
	<path fill-rule="evenodd" clip-rule="evenodd" fill="#FFFFFF" d="M0.274,271.884l2.587-11.659l11.66,2.589l-4.865,3.098
		c0.244,0.239,0.497,0.468,0.761,0.683c2.157,1.753,4.985,2.684,7.977,2.377c2.986-0.306,5.566-1.794,7.322-3.951
		c1.179-1.448,1.986-3.199,2.297-5.098l5.992-0.614c-0.239,3.528-1.586,6.801-3.725,9.428c-2.707,3.325-6.684,5.62-11.287,6.092
		c-4.595,0.471-8.951-0.969-12.276-3.675l-0.013-0.011c-0.751-0.612-1.533-1.236-2.167-1.972L0.274,271.884L0.274,271.884z"/>
	<path fill-rule="evenodd" clip-rule="evenodd" fill="#FFFFFF" d="M34.245,244.342l-2.587,11.659l-11.66-2.589l4.865-3.098
		c-0.244-0.239-0.497-0.467-0.761-0.683c-2.157-1.752-4.986-2.684-7.977-2.377c-2.986,0.307-5.566,1.795-7.322,3.951
		c-1.179,1.448-1.986,3.199-2.297,5.098l-5.992,0.614c0.239-3.528,1.586-6.801,3.724-9.428c2.707-3.325,6.684-5.619,11.287-6.092
		c4.595-0.471,8.951,0.969,12.276,3.676l0.012,0.01c0.752,0.612,1.534,1.236,2.167,1.972L34.245,244.342L34.245,244.342z"/>
	<polygon fill-rule="evenodd" clip-rule="evenodd" fill="#FFFFFF" points="0.274,34.52 0.274,31.123 0.274,23.817 3.671,23.817 
		3.671,31.123 30.848,31.123 30.848,23.817 34.245,23.817 34.245,31.123 34.245,34.52 30.848,34.52 3.671,34.52 0.274,34.52 	"/>
	<polygon fill-rule="evenodd" clip-rule="evenodd" fill="#FFFFFF" points="2.693,11.376 17.259,25.942 31.826,11.376 22.337,11.376 
		22.337,0.001 12.183,0.001 12.183,11.376 2.693,11.376 	"/>
	<polygon fill-rule="evenodd" clip-rule="evenodd" fill="#FFFFFF" points="163.416,248.505 168.219,243.701 177.828,253.309 
		187.436,243.701 192.24,248.505 182.631,258.113 192.24,267.722 187.436,272.525 177.828,262.917 168.219,272.525 163.416,267.722 
		173.023,258.113 163.416,248.505 	"/>
	<polygon fill-rule="evenodd" clip-rule="evenodd" fill="#FFFFFF" points="158.258,97.382 163.062,92.578 173.105,102.621 
		192.592,83.133 197.396,87.937 173.377,111.958 173.105,111.686 172.834,111.958 158.258,97.382 	"/>
	<path fill-rule="evenodd" clip-rule="evenodd" fill="#FFFFFF" d="M4.153,164.401l0.003,0.003l-0.001,0.001H4.148
		c-2.427,2.426-3.64,5.613-3.64,8.804c0,3.186,1.216,6.373,3.647,8.804l-0.003,0.004c2.43,2.428,5.619,3.644,8.808,3.644
		c3.188,0,6.377-1.216,8.807-3.644l-0.003-0.004h0.001l0.003,0.003c2.427-2.431,3.644-5.618,3.644-8.807
		c0-3.186-1.217-6.373-3.647-8.803l-0.001-0.001l0-0.001l0.003-0.003c-2.431-2.428-5.618-3.645-8.806-3.645
		C9.771,160.757,6.583,161.973,4.153,164.401L4.153,164.401z M1.753,162.003L1.753,162.003l0.007-0.001
		c3.094-3.094,7.147-4.642,11.2-4.642c4.052,0,8.104,1.548,11.198,4.642h0.007l0,0.001h0.001c3.093,3.094,4.642,7.15,4.642,11.206
		c0,3.536-1.18,7.073-3.536,9.974l2.629,2.629l1.263-1.263l8.945,8.945l-1.263,1.263l-2.402,2.402l-1.138,1.139l-8.945-8.945
		l1.138-1.139l-2.636-2.636c-2.887,2.318-6.396,3.479-9.904,3.479c-4.052,0-8.106-1.549-11.2-4.642H1.753
		c-3.094-3.095-4.642-7.151-4.642-11.207c0-4.05,1.549-8.105,4.646-11.203L1.753,162.003L1.753,162.003z"/>
	<path fill-rule="evenodd" clip-rule="evenodd" fill="#FFFFFF" d="M88.539,253.616v18.013h3.775v-18.013H88.539L88.539,253.616z
		 M92.732,243.971V241.2h9.621v2.771h7.508h3.398v3.396v2.853v3.372v0.024h-3.199v18.013v3.397h-3.398h-3.775h-3.398h-3.775h-3.398
		h-3.775h-3.398v-3.397v-18.013h-3.314v-0.024v-3.372v-2.853v-3.396h3.396H92.732L92.732,243.971z M109.861,250.22v-2.853H85.223
		v2.853H109.861L109.861,250.22z M106.662,271.629v-18.013h-3.775v18.013H106.662L106.662,271.629z M99.488,271.629v-18.013h-3.775
		v18.013H99.488L99.488,271.629z"/>
	<path fill="#FFFFFF" d="M160.207,9.921h5.973v3.397h-4.273v20.096h20.775v-4.738h3.396v6.437v1.698h-1.699h-24.172h-1.699v-1.698
		V11.62V9.921H160.207L160.207,9.921z M176.393,4.404h13.783v13.784l-4.49-4.49l-11.631,8.184h19.693V1.107h-20.775v19.146
		l7.91-11.359L176.393,4.404L176.393,4.404z M197.146-2.29v27.57h-27.57V-2.29H197.146L197.146-2.29z"/>
	<path fill="#FFFFFF" d="M-49.24,16.702v17.933v1.699h-1.699h-24.173h-1.698v-1.699V16.827l-4.651,4.651l-2.401-2.402l20.876-20.876
		l0.012,0.011l0.022-0.022l20.765,20.764l-2.402,2.401L-49.24,16.702L-49.24,16.702z M-67.494,16.691h8.938h1.699v1.699v8.938v1.699
		h-1.699h-8.938h-1.699v-1.699V18.39v-1.699H-67.494L-67.494,16.691z M-60.254,20.088h-5.541v5.541h5.541V20.088L-60.254,20.088z
		 M-73.413,13.43v19.507h20.775V13.305L-62.963,2.979L-73.413,13.43L-73.413,13.43z"/>
	<path fill-rule="evenodd" clip-rule="evenodd" fill="#FFFFFF" d="M85.785,174.564h2.699v-6.771c0-2.224,0.908-4.245,2.371-5.707
		c1.463-1.463,3.484-2.371,5.707-2.371h1.963c2.223,0,4.242,0.908,5.707,2.371c1.461,1.462,2.369,3.483,2.369,5.707v6.771h2.699
		v11.188c0,5.605-4.586,10.191-10.191,10.191h-3.133c-5.605,0-10.191-4.586-10.191-10.191V174.564L85.785,174.564z M91.881,174.564
		h11.324v-6.771c0-1.285-0.527-2.456-1.375-3.305c-0.85-0.85-2.021-1.377-3.305-1.377h-1.963c-1.285,0-2.455,0.527-3.305,1.377
		c-0.85,0.849-1.377,2.02-1.377,3.305V174.564L91.881,174.564z M97.543,179.107c1.713,0,3.102,1.39,3.102,3.103
		c0,1.085-0.557,2.041-1.402,2.596v4.276h-3.396v-4.276c-0.846-0.555-1.404-1.511-1.404-2.596
		C94.441,180.497,95.83,179.107,97.543,179.107L97.543,179.107z"/>
	<path fill="#FFFFFF" d="M180.881,174.564v-6.771c0-1.285,0.527-2.456,1.375-3.305c0.85-0.85,2.021-1.377,3.305-1.377h1.963
		c1.285,0,2.455,0.527,3.305,1.377c0.85,0.849,1.377,2.02,1.377,3.305v3.555h3.396v-3.555c0-2.224-0.908-4.245-2.371-5.707
		c-1.463-1.463-3.484-2.371-5.707-2.371h-1.963c-2.223,0-4.244,0.908-5.707,2.371c-1.463,1.462-2.371,3.483-2.371,5.707v6.771
		h-17.43v11.188c0,5.605,4.586,10.191,10.191,10.191h3.135c5.604,0,10.189-4.586,10.189-10.191v-11.188H180.881L180.881,174.564z
		 M171.811,179.291c1.713,0,3.104,1.39,3.104,3.103c0,1.086-0.559,2.042-1.404,2.596v4.277h-3.396v-4.277
		c-0.846-0.554-1.404-1.51-1.404-2.596C168.709,180.681,170.1,179.291,171.811,179.291L171.811,179.291z"/>
	<path fill-rule="evenodd" clip-rule="evenodd" fill="#FFFFFF" d="M-63.025,243.438c4.735,0,9.18,1.347,13.016,3.702
		c3.958,2.429,7.263,5.929,9.562,10.125l0.465,0.85l-0.465,0.848c-2.299,4.196-5.604,7.696-9.561,10.126
		c-3.836,2.354-8.282,3.7-13.017,3.7c-4.736,0-9.181-1.347-13.017-3.7c-3.958-2.43-7.262-5.93-9.562-10.126l-0.464-0.848l0.464-0.85
		c2.299-4.196,5.604-7.696,9.562-10.125C-72.206,244.784-67.761,243.438-63.025,243.438L-63.025,243.438z M-58.257,248.363
		c1.876,0,3.396,1.521,3.396,3.397s-1.52,3.396-3.396,3.396c-1.875,0-3.397-1.521-3.397-3.396S-60.133,248.363-58.257,248.363
		L-58.257,248.363z M-54.662,248.688c1.604,1.902,2.571,4.359,2.571,7.043c0,6.04-4.896,10.936-10.934,10.936
		c-6.04,0-10.936-4.896-10.936-10.936c0-2.684,0.968-5.141,2.572-7.043c-0.974,0.417-1.916,0.905-2.817,1.459
		c-3.161,1.939-5.848,4.681-7.82,7.967c1.972,3.285,4.66,6.025,7.819,7.965c3.292,2.021,7.111,3.176,11.182,3.176
		c4.07,0,7.888-1.155,11.181-3.176c3.159-1.939,5.847-4.68,7.819-7.965c-1.972-3.286-4.659-6.027-7.82-7.967
		C-52.747,249.594-53.688,249.105-54.662,248.688L-54.662,248.688z"/>
	<polygon fill="#FFFFFF" points="3.605,171.661 22.546,171.661 22.546,175.058 3.605,175.058 3.605,171.661 	"/>
	<polygon fill="#FFFFFF" points="11.377,182.83 11.377,163.89 14.774,163.89 14.774,182.83 11.377,182.83 	"/>
	<path fill-rule="evenodd" clip-rule="evenodd" fill="#FFFFFF" d="M108.627,9.846l7.084,7.084l-7.084,7.084
		C108.627,10.581,108.627,20.92,108.627,9.846L108.627,9.846z"/>
	<path fill-rule="evenodd" clip-rule="evenodd" fill="#FFFFFF" d="M86.459,9.846l-7.084,7.084l7.084,7.084
		C86.459,10.581,86.459,20.92,86.459,9.846L86.459,9.846z"/>
	<path fill-rule="evenodd" clip-rule="evenodd" fill="#FFFFFF" d="M90.459,6.176l7.084-7.084l7.084,7.084
		C91.193,6.176,101.533,6.176,90.459,6.176L90.459,6.176z"/>
	<path fill-rule="evenodd" clip-rule="evenodd" fill="#FFFFFF" d="M90.459,28.344l7.084,7.084l7.084-7.084
		C91.193,28.344,101.533,28.344,90.459,28.344L90.459,28.344z"/>
	<polygon fill="#FFFFFF" points="85.219,15.562 109.867,15.562 109.867,18.958 85.219,18.958 85.219,15.562 	"/>
	<polygon fill="#FFFFFF" points="95.846,29.584 95.846,4.937 99.242,4.937 99.242,29.584 95.846,29.584 	"/>
</g>
</svg>
